<?xml version="1.0" encoding="utf-8"?>
<!-- Generator: Adobe Illustrator 19.2.1, SVG Export Plug-In . SVG Version: 6.00 Build 0)  -->
<svg version="1.1" id="Layer_1" xmlns="http://www.w3.org/2000/svg" xmlns:xlink="http://www.w3.org/1999/xlink" x="0px" y="0px"
	 viewBox="0 0 153.3 47.8" style="enable-background:new 0 0 153.3 47.8;" xml:space="preserve">
<style type="text/css">
	.st0{fill:#A60032;}
	.st1{fill:#FFFFFF;}
	.st2{fill:none;stroke:#000000;stroke-width:0.684;stroke-linecap:round;stroke-linejoin:round;}
	.st3{fill:none;stroke:#000000;stroke-width:8.500000e-002;}
	.st4{fill:#F48E28;}
</style>
<g>
	<path class="st0" d="M35.7,31.6c8,0,14.5-6.5,14.5-14.5c0-8-6.5-14.5-14.5-14.5S21.2,9.2,21.2,17.2C21.2,25.1,27.7,31.6,35.7,31.6"
		/>
	<path class="st1" d="M35.9,8.4l6.6,5.1c0,0,0.3,0.2,0.3,0.8v8.9c0,0.2,0,0.7-0.6,0.7h-3.6c-0.6,0-0.7-0.4-0.7-0.8v-5.5h-4.5v5.6
		c0,0.2,0,0.7-0.5,0.7h-3.8c-0.4,0-0.6-0.4-0.6-0.8c0-0.3,0-8.4,0-8.7c0-0.3,0.1-0.5,0.3-0.7c0.2-0.2,6.2-5.1,6.4-5.2
		C35.5,8.2,35.9,8.4,35.9,8.4"/>
	<path class="st2" d="M23.3,7.9c0,0-1.3-0.2-3.1-0.3"/>
	<path class="st2" d="M50.6,18.8c0,0,5.9,3.7,9.4,7.6"/>
	<path class="st2" d="M47.5,7.9c0,0,12.9-2,17.6,3.3"/>
	<path class="st2" d="M20.2,18.8c0,0-5.7,3.3-9.4,7.6"/>
	<path class="st3" d="M37.2,42.8"/>
	<path class="st0" d="M17.7,9c0.9,0,1.6-0.7,1.6-1.6c0-0.9-0.7-1.6-1.6-1.6c-0.9,0-1.6,0.7-1.6,1.6C16.2,8.3,16.9,9,17.7,9"/>
	<path class="st4" d="M53.7,3.2c0.9,0,1.6-0.7,1.6-1.6c0-0.9-0.7-1.6-1.6-1.6c-0.9,0-1.6,0.7-1.6,1.6C52.1,2.5,52.8,3.2,53.7,3.2"/>
	<path class="st4" d="M67.2,28.8c0.7,0,1.3-0.6,1.3-1.3c0-0.7-0.6-1.3-1.3-1.3c-0.7,0-1.3,0.6-1.3,1.3
		C65.9,28.3,66.5,28.8,67.2,28.8"/>
	<path class="st0" d="M4.3,38.8c0.8,0,1.5-0.7,1.5-1.5c0-0.8-0.7-1.5-1.5-1.5c-0.8,0-1.5,0.7-1.5,1.5C2.8,38.2,3.5,38.8,4.3,38.8"/>
	<path class="st0" d="M66.5,16.2c1.2,0,2.3-1,2.3-2.3c0-1.2-1-2.3-2.3-2.3c-1.2,0-2.3,1-2.3,2.3C64.3,15.2,65.3,16.2,66.5,16.2"/>
	<path class="st4" d="M2.3,27.9c1.2,0,2.3-1,2.3-2.3c0-1.2-1-2.3-2.3-2.3c-1.2,0-2.3,1-2.3,2.3C0,26.9,1,27.9,2.3,27.9"/>
	<path class="st2" d="M15.4,7.6C10,7.9,3.9,9.7,3.9,15.9c0,13.5,31.8,31.6,48.9,31.6c13.4,0,14-6.5,14-8.7c0-4.6-5.2-10.3-5.2-10.3"
		/>
	<path class="st2" d="M4.8,35.1c1.5-3.5,4.3-6.7,4.3-6.7"/>
	<path class="st2" d="M65.1,11.1"/>
	<path class="st2" d="M66.8,17c-1.2,9-15.2,19.6-29.3,25.6"/>
	<path class="st2" d="M33.1,44.3c-5.5,2-10.8,3.1-15.1,3.1c-12.1,0-13.8-5.3-14-7.9"/>
	<path class="st0" d="M35.2,44.9c0.9,0,1.6-0.7,1.6-1.6c0-0.9-0.7-1.6-1.6-1.6s-1.6,0.7-1.6,1.6C33.6,44.2,34.3,44.9,35.2,44.9"/>
	<g>
		<path class="st4" d="M80.6,6.6H83v13h3.9v2.2h-6.3V6.6z"/>
		<path class="st4" d="M98.7,21.8h-2.4L95.8,19h-2.9l-0.4,2.8h-2.2l2.4-15.2h3.5L98.7,21.8z M93.2,16.9h2.3l-1.1-7.7L93.2,16.9z"/>
		<path class="st4" d="M109.5,10.1v0.5c0,1.6-0.5,2.6-1.5,3.1c1.3,0.5,1.8,1.6,1.8,3.3v1.2c0,2.3-1.2,3.6-3.6,3.6h-3.7V6.6h3.6
			C108.5,6.6,109.5,7.7,109.5,10.1z M104.8,8.8v4h0.9c0.9,0,1.4-0.4,1.4-1.6v-0.8c0-1.1-0.4-1.6-1.2-1.6H104.8z M104.8,14.9v4.7h1.4
			c0.8,0,1.2-0.4,1.2-1.5v-1.3c0-1.4-0.5-1.8-1.5-1.8H104.8z"/>
	</g>
	<g>
		<path class="st0" d="M120.7,16.1v2c0,2.4-1.2,3.8-3.6,3.8c-2.3,0-3.6-1.4-3.6-3.8v-7.9c0-2.4,1.2-3.8,3.6-3.8
			c2.3,0,3.6,1.4,3.6,3.8v1.5h-2.3v-1.6c0-1.1-0.5-1.5-1.2-1.5S116,9,116,10.1v8.2c0,1.1,0.5,1.5,1.2,1.5s1.2-0.4,1.2-1.5v-2.2
			H120.7z"/>
		<path class="st0" d="M124.6,10.2c0-2.4,1.3-3.8,3.6-3.8c2.3,0,3.6,1.4,3.6,3.8v7.9c0,2.4-1.3,3.8-3.6,3.8c-2.3,0-3.6-1.4-3.6-3.8
			V10.2z M126.9,18.3c0,1.1,0.5,1.5,1.2,1.5c0.8,0,1.2-0.4,1.2-1.5v-8.2c0-1.1-0.5-1.5-1.2-1.5c-0.8,0-1.2,0.4-1.2,1.5V18.3z"/>
		<path class="st0" d="M143.6,21.8h-2.4l-0.4-2.8h-2.9l-0.4,2.8h-2.2l2.4-15.2h3.5L143.6,21.8z M138.1,16.9h2.3l-1.1-7.7L138.1,16.9
			z"/>
		<path class="st0" d="M146,6.6h7.4v2.2h-2.5v13h-2.4v-13H146V6.6z"/>
	</g>
	<g>
		<path class="st4" d="M88.3,41.9h-2.4l-0.4-2.8h-2.9l-0.4,2.8H80l2.4-15.2h3.5L88.3,41.9z M82.9,37.1h2.3L84,29.4L82.9,37.1z"/>
		<path class="st4" d="M95.5,33.4h3.3v4.8c0,2.4-1.2,3.8-3.6,3.8c-2.3,0-3.6-1.4-3.6-3.8v-7.9c0-2.4,1.2-3.8,3.6-3.8
			c2.3,0,3.6,1.4,3.6,3.8v1.5h-2.3v-1.6c0-1.1-0.5-1.5-1.2-1.5s-1.2,0.4-1.2,1.5v8.2c0,1.1,0.5,1.5,1.2,1.5s1.2-0.4,1.2-1.5v-2.8
			h-1.1V33.4z"/>
		<path class="st4" d="M105.2,33.1h3.3v2.2h-3.3v4.4h4.1v2.2h-6.5V26.7h6.5v2.2h-4.1V33.1z"/>
		<path class="st4" d="M115.4,30.9v11h-2.1V26.7h3l2.4,9.1v-9.1h2.1v15.2h-2.4L115.4,30.9z"/>
		<path class="st4" d="M124.5,26.7h7.4v2.2h-2.5v13H127v-13h-2.5V26.7z"/>
		<path class="st4" d="M138.9,26.5c2.3,0,3.5,1.4,3.5,3.8v0.5h-2.3v-0.6c0-1.1-0.4-1.5-1.2-1.5s-1.2,0.4-1.2,1.5
			c0,3.1,4.7,3.7,4.7,8c0,2.4-1.2,3.8-3.6,3.8c-2.3,0-3.6-1.4-3.6-3.8v-0.9h2.3v1.1c0,1.1,0.5,1.5,1.2,1.5s1.2-0.4,1.2-1.5
			c0-3.1-4.7-3.7-4.7-8C135.4,27.9,136.6,26.5,138.9,26.5z"/>
	</g>
</g>
</svg>
